<svg width="64" height="64" viewBox="0 0 64 64" xmlns="http://www.w3.org/2000/svg">
    <!-- Background -->
    <rect width="64" height="64" fill="#2c2e31"/>
    <!-- Radial gradient for galaxy effect -->
    <circle cx="32" cy="32" r="30" fill="url(#galaxyGradient)"/>
    <defs>
        <radialGradient id="galaxyGradient" cx="50%" cy="50%" r="50%">
            <stop offset="0%" style="stop-color:#1a1b1e;stop-opacity:0.8"/>
            <stop offset="100%" style="stop-color:transparent;stop-opacity:0"/>
        </radialGradient>
    </defs>
    <!-- Stars -->
    <circle cx="20" cy="20" r="1" fill="#d1d0c5" opacity="0.8"/>
    <circle cx="44" cy="24" r="1.5" fill="#d1d0c5" opacity="0.6"/>
    <circle cx="30" cy="40" r="1" fill="#d1d0c5" opacity="0.7"/>
    <circle cx="50" cy="50" r="1.2" fill="#d1d0c5" opacity="0.5"/>
    <!-- Keyboard -->
    <rect x="10" y="20" width="44" height="24" rx="4" fill="#2c2e31" stroke="#646669" stroke-width="1"/>
    <rect x="12" y="22" width="6" height="6" rx="1" fill="#646669"/> <!-- Keys -->
    <rect x="20" y="22" width="6" height="6" rx="1" fill="#646669"/>
    <rect x="28" y="22" width="6" height="6" rx="1" fill="#646669"/>
    <rect x="36" y="22" width="6" height="6" rx="1" fill="#646669"/>
    <rect x="12" y="30" width="6" height="6" rx="1" fill="#646669"/>
    <rect x="20" y="30" width="6" height="6" rx="1" fill="#646669"/>
    <rect x="28" y="30" width="6" height="6" rx="1" fill="#646669"/>
    <rect x="36" y="30" width="6" height="6" rx="1" fill="#646669"/>
    <rect x="12" y="38" width="30" height="6" rx="1" fill="#e2b714"/> <!-- Spacebar -->
</svg>